<?xml version="1.0" encoding="UTF-8" standalone="no"?>
<!DOCTYPE svg PUBLIC "-//W3C//DTD SVG 1.1//EN" "http://www.w3.org/Graphics/SVG/1.1/DTD/svg11.dtd">
<svg width="100%" height="100%" viewBox="0 0 100 100" version="1.1" xmlns="http://www.w3.org/2000/svg" xmlns:xlink="http://www.w3.org/1999/xlink" xml:space="preserve" xmlns:serif="http://www.serif.com/" style="fill-rule:evenodd;clip-rule:evenodd;stroke-linejoin:round;stroke-miterlimit:2;">
    <path d="M6.017,4.313L61.35,0.226C68.147,-0.357 69.893,0.036 74.167,3.143L91.83,15.586C94.743,17.726 95.713,18.309 95.713,20.639L95.713,88.882C95.713,93.159 94.16,95.689 88.723,96.075L24.467,99.967C20.387,100.16 18.444,99.577 16.307,96.854L3.3,79.94C0.967,76.827 0,74.497 0,71.773L0,11.113C0,7.616 1.553,4.7 6.017,4.313Z" style="fill:white;fill-rule:nonzero;"/>
    <path d="M61.35,0.227L6.017,4.314C1.553,4.7 0,7.617 0,11.113L0,71.773C0,74.496 0.967,76.826 3.3,79.94L16.307,96.853C18.444,99.576 20.387,100.16 24.467,99.966L88.724,96.076C94.157,95.689 95.714,93.159 95.714,88.883L95.714,20.64C95.714,18.43 94.841,17.793 92.271,15.907L74.167,3.143C69.894,0.036 68.147,-0.357 61.35,0.226L61.35,0.227ZM25.92,19.523C20.673,19.876 19.483,19.956 16.503,17.533L8.927,11.507C8.157,10.727 8.544,9.754 10.484,9.56L63.677,5.673C68.144,5.283 70.47,6.84 72.217,8.2L81.34,14.81C81.73,15.007 82.7,16.17 81.533,16.17L26.6,19.477L25.92,19.524L25.92,19.523ZM19.803,88.3L19.803,30.367C19.803,27.837 20.58,26.67 22.906,26.474L86,22.78C88.14,22.587 89.107,23.947 89.107,26.473L89.107,84.02C89.107,86.55 88.717,88.69 85.224,88.883L24.847,92.383C21.354,92.576 19.804,91.413 19.804,88.3L19.803,88.3Z"/>
    <g transform="matrix(6.30589,-0.363797,0.363797,6.30589,-223.235,-93.9656)">
        <path d="M45.252,22.459L40.224,22.459C39.84,22.459 39.708,22.591 39.708,22.963L39.708,30.475C39.708,30.847 39.84,30.979 40.224,30.979L45.36,30.979C45.732,30.979 45.864,30.847 45.864,30.475L45.864,29.383C45.864,28.999 45.732,28.879 45.36,28.879L42.084,28.879L42.084,27.727L44.616,27.727C45,27.727 45.132,27.595 45.132,27.211L45.132,26.131C45.132,25.759 45,25.627 44.616,25.627L42.084,25.627L42.084,24.559L45.252,24.559C45.636,24.559 45.768,24.427 45.768,24.043L45.768,22.963C45.768,22.591 45.636,22.459 45.252,22.459Z" style="fill-rule:nonzero;"/>
    </g>
</svg>
